/* XPM */
static char *add_file[] = {
/* width height num_colors chars_per_pixel */
"    22    18       58            1",
/* colors */
". c #000000",
"# c #ffffff",
"a c #ff3f55",
"b c #d49faa",
"c c #553f55",
"d c #aa7faa",
"e c #ffdfff",
"f c #aa9faa",
"g c #d49fff",
"h c #aa7fff",
"i c #d4bfff",
"j c #2a1f55",
"k c #aa9fff",
"l c #7f7faa",
"m c #ccccff",
"n c #a0a0a4",
"o c #aabfff",
"p c #7f9fff",
"q c #d4dfff",
"r c #2a7fff",
"s c #2a3f55",
"t c #7fbfff",
"u c #557faa",
"v c #a6caf0",
"w c #2a7faa",
"x c #7f9faa",
"y c #559faa",
"z c #d4ffff",
"A c #c0dcc0",
"B c #aabfaa",
"C c #555f55",
"D c #aaff55",
"E c #aaff00",
"F c #2a3f00",
"G c #d4ff55",
"H c #d4dfaa",
"I c #7f7f55",
"J c #d4bf00",
"K c #aa9f55",
"L c #d4bf55",
"M c #ffdf55",
"N c #ffbf00",
"O c #7f5f00",
"P c #553f00",
"Q c #2a1f00",
"R c #fffbf0",
"S c #ffdfaa",
"T c #d47f00",
"U c #aa7f55",
"V c #d4bfaa",
"W c #ff9f55",
"X c #ff5f00",
"Y c #ff3f00",
"Z c #ffbfaa",
"0 c #7f5f55",
"1 c #2a0000",
"2 c None",
"3 c #808080",
/* pixels */
"2222222222222222222222",
"2222222222222222222222",
"22...c2222222222222222",
"2.###n3........2222.22",
"2.####.AVAVAVAf.22..33",
"2.....VfVfVfVfK.2.....",
"2.AVAVBVnVnbBfn.22..33",
"2.AVVVVbBVBVBVK.222.22",
"2.HVBVBVVVVVVV3.222222",
"2.AVVVVVVVVVVVn.222222",
"2.SVVVVVVVVVVVK.222222",
"2.qHVHVHHVHVHVn.222222",
"2.SHSHHZHHVHHS3.222222",
"2.fn3nn3nnnn3nK.222222",
"22.............2222222",
"2222222222222222222222",
"2222222222222222222222",
"2222222222222222222222"
};
