/* XPM */
static char *down_pic[] = {
/* width height num_colors chars_per_pixel */
"    22    18       44            1",
/* colors */
". c #000000",
"# c #2a2a2a",
"a c #2c2c2c",
"b c #8a8a8a",
"c c #8b8b8b",
"d c #939393",
"e c #9a9a9a",
"f c #9b9b9b",
"g c #a3a3a3",
"h c #a597c3",
"i c #a997d5",
"j c #acacac",
"k c #ae99e0",
"l c #ae9be0",
"m c #b09be2",
"n c #b09de2",
"o c #b19fe2",
"p c #b2a5d8",
"q c #b39ee1",
"r c #b4a3e3",
"s c #b5a3e1",
"t c #b6a3e3",
"u c #b6a6e4",
"v c #b6b6b6",
"w c #b7a5e3",
"x c #b8a6e4",
"y c #b9aae6",
"z c #bba7e3",
"A c #bbabe4",
"B c #bdabe4",
"C c #bdaee5",
"D c #bfaee5",
"E c #c0b2e7",
"F c None",
"G c #c1b2e5",
"H c #c2afe4",
"I c #c2b3e6",
"J c #c2b5e8",
"K c #c4b2e5",
"L c #c4b5e8",
"M c #c5b7e7",
"N c #c6b8e8",
"O c #c9bae8",
"P c #c9bbe7",
/* pixels */
"FFFFFFFFFFFFFFFFFFFFFF",
"FFFFFFFFFFFFFFFFFFFFFF",
"FFFFFFF########FFFFFFF",
"FFFFFFFaNNNNNi#eFFFFFF",
"FFFFFFF.Nkkkkh.eFFFFFF",
"FFFFFFF.Nllmlh.eFFFFFF",
"FFFFFFF.Nqonnh.eFFFFFF",
"FFFFFFF.Nrtssh.eFFFFFF",
"FFFF....Nuzwxh....fFFF",
"FFFF.NNNNyBABANNp.bFFF",
"FFFFc.hCDDDDDHCh.cvFFF",
"FFFFvc.hKIIGKEh.cvFFFF",
"FFFFFvc.hJLLMh.cvFFFFF",
"FFFFFFvc.hPOh.dgvFFFFF",
"FFFFFFFvc.hh.djvFFFFFF",
"FFFFFFFFvc..djvFFFFFFF",
"FFFFFFFFFvcdjvFFFFFFFF",
"FFFFFFFFFFFFFFFFFFFFFF"
};
