/* XPM */
static char *edit_pic[] = {
/* width height num_colors chars_per_pixel */
"    22    18       73            2",
/* colors */
".. c #000000",
".# c #101010",
".a c #111111",
".b c #111113",
".c c #12110d",
".d c #141206",
".e c #170f0d",
".f c #180e0f",
".g c #191100",
".h c #1e0c0c",
".i c #1e1100",
".j c #2b2b2b",
".k c #2b2b2d",
".l c #341100",
".m c #35342f",
".n c #413f33",
".o c #555756",
".p c #565656",
".q c #645c5a",
".r c #676661",
".s c #6b5959",
".t c #736b54",
".u c #757261",
".v c #7b7a76",
".w c #837171",
".x c #858786",
".y c #868686",
".z c #877d7e",
".A c #878787",
".B c #8e6b0d",
".C c #999685",
".D c #9a9091",
".E c #9c8855",
".F c #9c9988",
".G c #a38b4d",
".H c #a48a89",
".I c #a89052",
".J c #abaaa5",
".K c #b39032",
".L c #b48686",
".M c #b79d9c",
".N c #b9a572",
".O c #bfb5b6",
".P c #bfc0c2",
".Q c #bfc1c0",
".R c #c0beb2",
".S c None",
".T c #c0c0c2",
".U c #c1bead",
".V c #c1bfc0",
".W c #c1c0bc",
".X c #c1c1c1",
".Y c #c68f00",
".Z c #c8b481",
".0 c #c8c0a9",
".1 c #c99b9b",
".2 c #cbcac5",
".3 c #d1c4a2",
".4 c #d6be80",
".5 c #d6c4c4",
".6 c #d7b456",
".7 c #dbc1c0",
".8 c #dfd7d5",
".9 c #e1b43f",
"#. c #e2b4b4",
"## c #e3cf9c",
"#a c #e8b121",
"#b c #e9bbbb",
"#c c #ead0cf",
"#d c #ebb424",
"#e c #eee1bf",
"#f c #ffe16c",
"#g c #ffe9ab",
/* pixels */
".S.S.S.S.S.S.S.S.S.S.S.S.S.S.S.S.S.S.S.S.S.S",
".S.S.S.S.S.S.S.S.S.S.S.S.S.S.S.S.q.e.h.s.S.S",
".S.S.S.S.S.S.S.S.S.S.S.S.S.S.S.X.e.8.5.w...S",
".S.S.S.S.S.S.S.S.S.S.S.S.S.S.S.a#c.7#b.L...S",
".S.S.S.S.S.S.S.S.S.S.S.S.S.S.S.a.M.H#..1.#.S",
".S.S.S.S.S.S.S.S.S.S.S.S.S.S.i.3#g.4.D.z.a.S",
".S.S.S.S.S.S.S.S.S.S.S.S.S.S.i#e.I.G.O.f.S.S",
".S.S.S.S.S.S.S.S.S.S.S.S.S.a#f.9#d#a.t.g.S.S",
".S.S.S.S.S.S.S.S.S.S.S.S.S.##f.9#d.Y.g.0.S.S",
".S.S.S.S.S.S.S.S.S.S.S.S.r.J.E.Z.6.B.a.S.S.S",
".S.S.S.S.S.S.S.S.S.S.S.S.m.2##.N.K.l.S.S.S.S",
".S.S.S.S.S.S.S.S.S.S.S.S.d.R.U.C.t.g.S.S.S.S",
".S.S.S.S.S.S.S.S.S.S.S.S.n.R.F.u.g.0.S.S.S.S",
".S.S.S.S.S.S.S.S.S.S.S.S.k.k.v.c.S.S.S.S.S.S",
".S.S.S.S.S.S.S.S.S.S.S.S.k.b.c.W.S.S.X.S.S.S",
".S.S.S.S.S.S.S.S.X.X.Q.Q.j.a.S.S.S.S.S.S.S.S",
".S.S.y.p.y.p.A.p.y.p.x.o.a.S.S.S.S.S.S.S.S.S",
".S.S.S.S.S.S.S.S.S.S.S.S.S.S.S.S.S.S.S.S.S.S"
};
