/* XPM */
static char *icecast_pix[] = {
/* width height num_colors chars_per_pixel */
"    16    16       38            1",
/* colors */
". c #000000",
"# c #808080",
"a c #c0dcc0",
"b c #2a5f55",
"c c #550000",
"d c #551f00",
"e c #553f00",
"f c #553f55",
"g c #555f55",
"h c #557f55",
"i c #557faa",
"j c #559f55",
"k c #559faa",
"l c #7f3f00",
"m c #7f5f00",
"n c #7f5f55",
"o c #7f7f55",
"p c #7f9faa",
"q c #aa5f00",
"r c #aa7f00",
"s c #aabfaa",
"t c #d47f00",
"u c #d47f55",
"v c #d49f00",
"w c #d49f55",
"x c #d4bfaa",
"y c #d4dfff",
"z c #ff9f00",
"A c #ffbf00",
"B c #ffbf55",
"C c #ffdfff",
"D c #2a0000",
"E c #2a1f55",
"F c #2a3f55",
"G c #fffbf0",
"H c #a0a0a4",
"I c None",
"J c #ffffff",
/* pixels */
"IIIIIIIIIIIIIIII",
"IIIIIIIfFfIIIDfI",
"IIIIIIfHGFfcFzlI",
"IIIIIfpJJafqzr.I",
"IIIIfpJGamwArDII",
"IIIfpJa#mBAv.fII",
"IIfpG#mtBBzwfFfI",
"IfpJotABBzzAlabf",
"IEJCgqrBAzAtnGC.",
"IfbGsowzzzr#aGkf",
"IIfgxBzAtmsyJifI",
"III.wzzq#aGJhfII",
"IIDuzz#xGJGjfIII",
"IIlAr.bGJJkfIIII",
"IIedDIfbJ#fIIIII",
"II.IIIIfEfIIIIII"
};
