/* XPM */
static char *import_pic[] = {
/* width height num_colors chars_per_pixel */
"    22    18       35            1",
/* colors */
". c #000000",
"# c #1575bf",
"a c #1f1f1f",
"b c #2c2c2c",
"c c #2f2f2f",
"d c #2f82c2",
"e c #398bca",
"f c #414141",
"g c #5c9dd0",
"h c #5ea0d2",
"i c #606060",
"j c #666666",
"k c #737373",
"l c #7aafd8",
"m c #7c7c7c",
"n c #808080",
"o c #828282",
"p c #868686",
"q c #8f8f8f",
"r c #96bfdf",
"s c #999999",
"t c #99c2e2",
"u c #a3a3a3",
"v c #abcce5",
"w c #accde7",
"x c #ae99e0",
"y c #b3b3b3",
"z c #b9b9b9",
"A c #bbfc27",
"B c None",
"C c #cccccc",
"D c #cecece",
"E c #e6e6e6",
"F c #ff4a20",
"G c #ffffff",
/* pixels */
"BBBBBBBBBBBBBBBBBBBBBB",
"BBBBBBBBBBBBBBBBBBBBBB",
"BBBBBBB..j.j.j.BBBBBBB",
"BBBBBBB.xGFGAG.BBBBBBB",
"BBkBBBB.xGFGAG.BBBB..B",
"BB.kBBB.xEFEAE.BBB.vG.",
"ii..kBB.xCFCAC.BBB.rE.",
".....kB.xyFyAy.BB.wD.B",
"ii..kBB.xsFsAs.BB.tz.B",
"BB.kBBB.xsFsAs.B.lD.BB",
"BBkBBBB.xsFsAs.B.gz.BB",
"BBBBBBB.xsFsAsc.hu.BBB",
"BBBBBBB.xsFsAsb.eq.BBB",
"BBBBBBB.xnFnAna#m.BBBB",
"BBBBBBB.xjFjAjfdm.BBBB",
"BBBBBBB.......o..pBBBB",
"BBBBBBBBBBBBBBBBBBBBBB",
"BBBBBBBBBBBBBBBBBBBBBB"
};
