/* XPM */
static char *new_pic[] = {
/* width height num_colors chars_per_pixel */
"    22    18       33            1",
/* colors */
". c #111111",
"# c #131313",
"a c #474747",
"b c #575757",
"c c #595959",
"d c #5b5b5b",
"e c #686868",
"f c #6b6b6b",
"g c #6c6c6c",
"h c #6e6e6e",
"i c #707070",
"j c #7a7a7a",
"k c #7c7c7c",
"l c #888888",
"m c #8c8c8c",
"n c #959595",
"o c #999999",
"p c #a1a1a1",
"q c #a3a3a3",
"r c #b5b5b5",
"s c #b7b7b7",
"t c #b9b9b9",
"u c #bebebe",
"v c None",
"w c #c4c4c4",
"x c #c7c7c7",
"y c #c8c8c8",
"z c #cecece",
"A c #e5e5e5",
"B c #efefef",
"C c #f4f4f4",
"D c #f9f9f9",
"E c #ffffff",
/* pixels */
"vvvvvvvvvvvvvvvvvvvvvv",
"vvvvvvvvvvvvvfvvvvvvvv",
"vvvvvvv...vvvavvvvvvvv",
"vvvvv..EEE.vvavv#vvvvv",
"vvv..EEEqq.vvvv#vvvvvv",
"vv.EEEqq..vvvvvvvvvvvv",
"vv.Elq..zz.vvvvvaafvvv",
"vv.Ew.zzABz.vvvvvvvvvv",
"vvv.AEABDkugnvv#vvvvvv",
"vvvv.zEkkEEx.vvv#vvvvv",
"vvvvv.EEEEkx.vvvvvvvvv",
"vvvvv.tEkiAt.vvvvvvvvv",
"vvvv..iAAztm.vvvvvvvvv",
"vvv.yi.zzpd.vvvvvvvvvv",
"vvv.Cbspd..vvvvvvvvvvv",
"vvvoerh..vvvvvvvvvvvvv",
"vvvvocjvvvvvvvvvvvvvvv",
"vvvvvvvvvvvvvvvvvvvvvv"
};
