/* XPM */
static char *save_pic[] = {
/* width height num_colors chars_per_pixel */
"    22    18       42            1",
/* colors */
". c #000000",
"# c #111111",
"a c #2c313f",
"b c #37383b",
"c c #3f475d",
"d c #404043",
"e c #474749",
"f c #606167",
"g c #646569",
"h c #6c7aa2",
"i c #757886",
"j c #7c8cba",
"k c #7d8397",
"l c #8596c8",
"m c #8c909d",
"n c #8e98aa",
"o c #9a9ba2",
"p c #9bafe8",
"q c #9cb0e8",
"r c #9da4b7",
"s c #9eadd6",
"t c #9eb3e8",
"u c #a1b4ea",
"v c #a4a8b2",
"w c #a8aab3",
"x c #abbcec",
"y c #adbdec",
"z c #afbeeb",
"A c #b0bdd8",
"B c #b0bfe8",
"C c #b2b5c2",
"D c #b3c2ee",
"E c #b4bec9",
"F c #b5bdc5",
"G c #b5bec6",
"H c None",
"I c #c0c2ca",
"J c #c1cae7",
"K c #ced7eb",
"L c #d3d7dc",
"M c #e2e4ed",
"N c #f0f3fc",
/* pixels */
"HHHHHHHHHHHHHHHHHHHHHH",
"HHHHHHHHHHHHHHHHHHHHHH",
"HHHHHHHHHH###HHHHHHHHH",
"HHHHHHHH##Njp#HHHHHHHH",
"HHHHHH##NNNNjp#HHHHHHH",
"HHHH##NNNNNNNjp#HHHHHH",
"HHH#plMNNNNNNNjp#HHHHH",
"HHH#DplMNNNNojpqp#HHHH",
"HHH.JDpjMNIjxBLnqp#HHH",
"HHHH.JDpjjuzEFFFmtp#HH",
"HHHHH.JDppyGhjFFCih#HH",
"HHHHHH.JDppKGjpwrda.HH",
"HHHHHHH.JDppAwveb..HHH",
"HHHHHHHH.Jshkgf..HHHHH",
"HHHHHHHHH.Jcc..HHHHHHH",
"HHHHHHHHHH...HHHHHHHHH",
"HHHHHHHHHHHHHHHHHHHHHH",
"HHHHHHHHHHHHHHHHHHHHHH"
};
