/* XPM */
static char *trash_pic[] = {
/* width height num_colors chars_per_pixel */
"    22    18      132            2",
/* colors */
".. c #000000",
".# c #050505",
".a c #090909",
".b c #0c0c0c",
".c c #0d0d0d",
".d c #151515",
".e c #1a1a1a",
".f c #1e1e1e",
".g c #202020",
".h c #232323",
".i c #333333",
".j c #363636",
".k c #393939",
".l c #3a3a3a",
".m c #3b3b3b",
".n c #3d3d3d",
".o c #3e3e3e",
".p c #414141",
".q c #424242",
".r c #434343",
".s c #444444",
".t c #464646",
".u c #474747",
".v c #494949",
".w c #4a4a4a",
".x c #4c4c4c",
".y c #4d4d4d",
".z c #4e4e4e",
".A c #505050",
".B c #535353",
".C c #545454",
".D c #565656",
".E c #575757",
".F c #595959",
".G c #5a5a5a",
".H c #5b5b5b",
".I c #5c5c5c",
".J c #5d5d5d",
".K c #5e5e5e",
".L c #606060",
".M c #616161",
".N c #626262",
".O c #656565",
".P c #666666",
".Q c #676767",
".R c #686868",
".S c #696969",
".T c #6a6a6a",
".U c #6c6c6c",
".V c #6d6d6d",
".W c #6e6e6e",
".X c #6f6f6f",
".Y c #707070",
".Z c #727272",
".0 c #737373",
".1 c #747474",
".2 c #757575",
".3 c #767676",
".4 c #777777",
".5 c #787878",
".6 c #797979",
".7 c #7a7a7a",
".8 c #7b7b7b",
".9 c #7c7c7c",
"#. c #7e7e7e",
"## c #7f7f7f",
"#a c #808080",
"#b c #828282",
"#c c #858585",
"#d c #868686",
"#e c #878787",
"#f c #888888",
"#g c #8a8a8a",
"#h c #8b8b8b",
"#i c #8c8c8c",
"#j c #8e8e8e",
"#k c #909090",
"#l c #939393",
"#m c #949494",
"#n c #979797",
"#o c #999999",
"#p c #9a9a9a",
"#q c #9b9b9b",
"#r c #9c9c9c",
"#s c #9d9d9d",
"#t c #9f9f9f",
"#u c #a0a0a0",
"#v c #a1a1a1",
"#w c #a2a2a2",
"#x c #a4a4a4",
"#y c #a5a5a5",
"#z c #a6a6a6",
"#A c #a9a9a9",
"#B c #aaaaaa",
"#C c #acacac",
"#D c #aeaeae",
"#E c #afafaf",
"#F c #b1b1b1",
"#G c #b3b3b3",
"#H c #b6b6b6",
"#I c #b7b7b7",
"#J c #b9b9b9",
"#K c #bababa",
"#L c #bbbbbb",
"#M c #bebebe",
"#N c None",
"#O c #c2c2c2",
"#P c #c3c3c3",
"#Q c #c6c6c6",
"#R c #c9c9c9",
"#S c #cacaca",
"#T c #cbcbcb",
"#U c #cccccc",
"#V c #cecece",
"#W c #cfcfcf",
"#X c #d3d3d3",
"#Y c #d4d4d4",
"#Z c #d6d6d6",
"#0 c #d7d7d7",
"#1 c #dadada",
"#2 c #dbdbdb",
"#3 c #dcdcdc",
"#4 c #dfdfdf",
"#5 c #e0e0e0",
"#6 c #e1e1e1",
"#7 c #e2e2e2",
"#8 c #e6e6e6",
"#9 c #e8e8e8",
"a. c #eeeeee",
"a# c #f8f8f8",
"aa c #fbfbfb",
"ab c #ffffff",
/* pixels */
"#N#N#N#N#N#N#N#N#N#N#N#N#N#N#N#N#N#N#N#N#N#N",
"#N#N#N#N#N#d........#d#N#N#N#N#N#N#N#N#N#N#N",
"#N#N#N#d..#e#9#6#X#3.B..#d#N#N#N#N#N#N#N#N#N",
"#N#N#d.uab#J.1.6.2#r#D#W..#d#N#N#N#N#N#N#N#N",
"#N#N..ab#I.F.J.L.G.R.Y#e#U..#N#N#N#N#N#N#N#N",
"#N#N..ab#v.t.m.j.q.x.w.0#P..#N#N#N#N#N#N#N#N",
"#N#N..ab#I.w.l.p.k.F.J#g#J..#N#N#N#N#N#N#N#N",
"#N#N..ab#y#Q.7.Z.R###d#N#l..#N#N#N#N#N#N#N#N",
"#N#N..ab#faa#H#T#7#B#t#o.8.d.t.g.d#N#N#N#N#N",
"#N#N..#5.8a##.#F#T.Q.Y#m.A#V#U#K#M.k#N#N#N#N",
"#N#N..#1.9a..1#s#E.E.L.z#Y#R#A#L#R#v.z#N#N#N",
"#N#N..#5.Z#8.U#k#u.x.o#Y#R#i#l#n#O#m.C#N#N#N",
"#N#N..#S.X#0.I.6#m.p.a#1#D#G#4.t#E#e.r#N#N#N",
"#N#N..#j.J#r.H.V#c.p.c#Z#r#2#x.p#z.9.i#C#N#N",
"#N#N#b.W.0.X.K.D##.s.b#A#B#J.T.v#w.M.h#C#N#N",
"#N#N#N.p...y.v.q.z.u.##.#H#z.5.3.4.i#q#C#N#N",
"#N#N#N#N#a.C.........N.e.P#b.S.G.n.y#q#C#N#N",
"#N#N#N#N.O#N#p#g#g#g#g#g.f.o.B.n#h#q#C#C#N#N"
};
