/* XPM */
static char *up_pic[] = {
/* width height num_colors chars_per_pixel */
"    22    18       48            1",
/* colors */
". c #000000",
"# c #2a2a2a",
"a c #2c2c2c",
"b c #998cb5",
"c c #9a9a9a",
"d c #9c8ac8",
"e c #9d8aca",
"f c #9e90c0",
"g c #a597c3",
"h c #a598cb",
"i c #acacac",
"j c #ad9adf",
"k c #ae99e0",
"l c #ae9be0",
"m c #b09adf",
"n c #b09de2",
"o c #b19fe2",
"p c #b1a5d1",
"q c #b29de0",
"r c #b2a0e3",
"s c #b39ee1",
"t c #b49fe2",
"u c #b5a5e3",
"v c #b6a4e2",
"w c #b7a5e3",
"x c #b8a6e4",
"y c #bbaae6",
"z c #bcace5",
"A c #bdaee5",
"B c #bfaee5",
"C c #c0b4d6",
"D c None",
"E c #c1b2e5",
"F c #c1b3e8",
"G c #c3b4e7",
"H c #c4b5e8",
"I c #c6b8e8",
"J c #c7bae8",
"K c #c9bae8",
"L c #c9bcea",
"M c #cabbe9",
"N c #cdc0e9",
"O c #cec1ea",
"P c #cfc2eb",
"Q c #cfc5ec",
"R c #d4c8ef",
"S c #d8ccee",
"T c #dbd1ef",
/* pixels */
"DDDDDDDDDDDDDDDDDDDDDD",
"DDDDDDDDDDDDDDDDDDDDDD",
"DDDDDDDDDD..iDDDDDDDDD",
"DDDDDDDDD.II.iDDDDDDDD",
"DDDDDDDD.IkkI.iDDDDDDD",
"DDDDDDD.Ikkkkp.iDDDDDD",
"DDDDDD.Ikkkjjmh.iDDDDD",
"DDDDD.Ikjjmllqnf.iDDDD",
"DDDD.pdelllstgggb.iDDD",
"DDDD....Oorvwg....cDDD",
"DDDDccc.QuxyAg.ccccDDD",
"DDDDDDD.RzBEGg.cDDDDDD",
"DDDDDDD.SFHJMg.cDDDDDD",
"DDDDDDD.TKLNPg.cDDDDDD",
"DDDDDDDaCggggg#cDDDDDD",
"DDDDDDD########cDDDDDD",
"DDDDDDDDccccccccDDDDDD",
"DDDDDDDDDDDDDDDDDDDDDD"
};
