/* XPM */
static char *wiredplanet_pix[] = {
/* width height num_colors chars_per_pixel */
"    16    16       21            1",
/* colors */
". c #000000",
"# c #2a3faa",
"a c #2a5f55",
"b c #2a5faa",
"c c #553f00",
"d c #553f55",
"e c #555f55",
"f c #555faa",
"g c #557faa",
"h c #7f5f00",
"i c #7f7f00",
"j c #7f7faa",
"k c #aa9f55",
"l c #aa9fff",
"m c #d4bf00",
"n c #d4bf55",
"o c #ffdf55",
"p c #2a1f00",
"q c #2a1f55",
"r c #2a3f55",
"s c None",
/* pixels */
"ssssssssssssssss",
"sss.lrfffffrl.ss",
"ss.qrbb###bbrq.s",
"s.qrr#rr####rrq.",
"s...qr######r...",
"seb#r#bbbfkbbbb.",
"sj#r#bbbfnrbbfbq",
"sj#r#bbgoigbbffq",
"sj###bfkmohbbffq",
"sj###bffncbbbffq",
"sj###bfndfbbbfbq",
"sab##bkbbbbbff#q",
"sdrrrbbbbbbferrd",
"s.qr.bffffffprq.",
"ss.q.bbbfbbb.q.s",
"sss..qqqqqqq..ss"
};
