/* XPM */
static char *wizard_small[] = {
/* width height num_colors chars_per_pixel */
"    61   131       56            1",
/* colors */
". c #000000",
"# c #008080",
"a c #808080",
"b c #c0dcc0",
"c c #a6caf0",
"d c #2a3faa",
"e c #2a5f55",
"f c #2a5faa",
"g c #2a7f55",
"h c #2a7faa",
"i c #551f00",
"j c #551f55",
"k c #553f00",
"l c #553f55",
"m c #553faa",
"n c #555f55",
"o c #555faa",
"p c #557f55",
"q c #557faa",
"r c #559faa",
"s c #7f3f55",
"t c #7f3faa",
"u c #7f5f55",
"v c #7f5faa",
"w c #7f7f55",
"x c #7f7faa",
"y c #7f9faa",
"z c #7f9fff",
"A c #7fbfaa",
"B c #aa3f55",
"C c #aa5f55",
"D c #aa5faa",
"E c #aa7f55",
"F c #aa7faa",
"G c #aa7fff",
"H c #aa9f55",
"I c #aa9faa",
"J c #aa9fff",
"K c #aabfaa",
"L c #d49faa",
"M c #d4bfaa",
"N c #d4bfff",
"O c #d4dfaa",
"P c #d4dfff",
"Q c #ffbfff",
"R c #ccccff",
"S c #ffccff",
"T c #007f55",
"U c #2a0000",
"V c #2a1f00",
"W c #2a1f55",
"X c #2a3f00",
"Y c #2a3f55",
"Z c #fffbf0",
"0 c #a0a0a4",
"1 c #ffffff",
/* pixels */
"YYYlllllllllllllllllllllllllllllllllllllllllllllllllllllllll1",
"Ynnnnnnnannanannannnnannannannannannannnannannannannnnnannnn1",
"nnnnaaaaaaaananaanaaaaaaanaaaaaaaanaannaanaanaanaananaaaaanu1",
"nnaaaaaaaaaaaaaaaaaaaaaaaxaaaaaaaaxaaaaaaaaaaaaaaaaaaaaaaaaa1",
"nuaaaa000000000000000000000000000000000000000000000000000aya1",
"naaa000KKKKKKKKKKKKKKKKKKKKKKKKKKKKKKIKKKKKKKKKKKKKKKKIKK0001",
"naaa0IKKIKKKKKKKKKKKbbbbbbbKbbbbbbbbbKbbbbbbbbbbbbbbbbMbKK001",
"naa00KLMcbMMbMMbbMMMMbMbbMMbbMbMbNMbbMbbbMbbNMbMKbMMbbMbMKK01",
"naa0KIbNNbbbbbNbbMbbbbbbNbbMMbbbbNNNMbbbNbbbNbbbNbbbbbbbbIK01",
"aaa0KMMbbbbbbbbbbbNbNbNbNbbbbNNbbbbbbbbbbbbbNbbbbbbObNbNNccK1",
"naa0KbMbbNNNNbbNbbNNbbNNbbObbSbObbbbbbbbbNSPbbbMbNbbPRPbbMKI1",
"nay0IMcNNNNNbNNNbbNNbbNRNNbbPRbNbMbbNbbbbbNNPbNbbbNbONNNRNbK1",
"nay0IKcNNNbbbNbbbNNNbbNNNNbbNbbNbbNNbbbbNNbbbbbbbNbbbNNNbcbK1",
"naa0KcMNNbbbbN0INNbNbbNbbNbbMbbbbbNNbbbbbNbbbbbbbbRNbbbNbbMK1",
"naa0KcIII0xI0I0000000IIIIKbKbKbbNNNNbbbbbNbbbbbbbbNNbbbNMcII1",
"naa0IyIcccaK0IacLNNNNbMNNbbbIbNbNNNNbbNNbbNbbNNNbbNNNbbbbbII1",
"naa00aKII0aabII0xI00IIKcIIbIKbbbNNNNbbNNbbNNNNNNbbNbNNNNMNcK1",
"naa0aIIKKaaKbbcKINcNMKIIbbNcMbbbNNNNbbNNbbNNNbNNbbNbbbNNccKK1",
"nay0aKIIaaKII00aaI00II0IcIIKbLbbNNNNbbNNbbbNNNbNNbbbbbNNbcII1",
"nayaqKIya000cccbccNcccKRbbNNbbbbNNNNbbNNbbbNNNbbbbNNNNNNbbcK1",
"na0an0Ia0IIaIIy000I0IIIIIIIcKbbbNbNNbbNNbbbNbNbbNNbbNNNRMKKK1",
"nayan0Iy0KIacKbbMMMMMIbMMMbRbNNcbbbNbbNNbNbNbbbbNNbbcNcbccKK1",
"naa0n00Ixaa00x000000I0IIKIKKbRRRMNbcbbNcbbbcbbNNNcbbbNNNbKII1",
"naa0n0IIbIbbbbbbbMNcbKRbbbcbbcNNbbbNbMNbbbbbNbcNbbNbbbbNbbKI1",
"aay0n0IacxbNcbcbbMbbbIMbbbbMbbcNbbbcbbcbbbbbbMbbbbcbbbbcbbK01",
"naa0nIKxycbbMccbcbbbccccNccbbNccccbMccbbbbcccbbMbcbNccbcMKKK1",
"naaay0KKbMbccbcbMMcbcbccccMMNNNbKNbbcbbcccbNMbbbbbcbbbbMbcKK1",
"nnan00KcbMbccbcNbbcbccbMcbbbbbNbbcbMMbcccccccbMMMbcbMbbMbbKK1",
"nnnx0yKcKMbMbMbbKMbbcbbbMbccccbMMbMMbccccccbMMbbbcbMMbbccKI01",
"naxayIKcbKbKbMbMMKbcbcKMKcbccccbccbKMccbKcIcbKcbMcccbMMMcKII1",
"nqaya0IIbbKcKbKbbccccKbbJKKbbcbbbMbbcbMMbbbbcccbMbKMMbKMKII01",
"nnayn0KKIKMcKMKMcccccbIKKbKccccbbKKMccKMcbbKKcccKbcbbbcbKKI01",
"nqaxnyIKKKKKKKKcKbKKcIIyKccccbbbbKcbcbMbcKcbccbbKbcMbcKKKcI01",
"naaynyIKIIIccbKIIIII0y0yIIIKKKIIKKIcbcKbMbKIcbbMKbcbIKKKKKI01",
"naaanyyayyaKKK00cccccKcccKKcKKKKbccbKccKccKKcKKKKcbcKKbbKK001",
"naaanynyy0yayIyyIIIII0y0IIIKccKcKcKbKKKcKcbIcKKKKKcccbKKKcy01",
"naaanyn0nxyy00a0KKKccKI0KKKccbcKKcKcKKKcccbKKKKbbccKKKKKKcy01",
"naaqn0nyyayy0IIyyIIIKy0yKKKKKcccccKKcccbbcccbKKcccccbcbcKIAy1",
"naayn0ynayayKKKxyKIIK0IyccKKcKcKcccccKcccKcKcKcKcKKccKccccA01",
"naaaxyyyy0KcyyKya0I0Iy0yyyyyKcKcccccccccIcccKcKcKcKcKccccKy01",
"nqaayqxyyAK0KIKyyKcccyy0KcKccKcKccKKccKccKIKKccKKccKcKcccIK01",
"naqay0ayyyyyIyKc00Iy00y0y0yyKKcKKKcKccKcKcKKKKIcKcccccccKyyy1",
"noqyyA0AKKcIKKIKcKKKKyyKKKKK0Kcy0KcKcccKcKcKKKcKKcKKccccIAAy1",
"noqay0yyKKcKKAKKcKAKyKcKccKKcccKKIcIAccAI0KKKAcKycAKKcKKKK0y1",
"naaayyyIKKcyKAIKAKcIKKcAIAcyKcc0KAc0KcccccccKKcAKcKKIKKccbbb1",
"nnaayAAAKKKKKAKAAKcKKKKKKIKKKKIKcKcAKcccccccKbRbbbbKKI00xaaa1",
"nnaayyAcKKcAKAAAIKcKAKcKKKKKKKbKbbRbbbcII0xyaxyyyaaaaaaaaaaa1",
"noaayAAAKAKAKyAcKccbKKKIII0000xxxaaaaaaayyaaaayyyyyyyyyKAKKb1",
"nqayKKKbbKKII00xayyxaaaaaaaaaaaaaaxarayyy00KKKKKKK00yaaaxqaa1",
"aaaaaaaaaaaaaappqqqaaparaayyy00000yyyxyaaryaayryaayyyyyyyyaa1",
"llnnpaoaaxayyyyyyyaaaaapaaaaaqaarayryyyayyyyyyyyyyyyyyyyyyaq1",
"nannaaaappppaqapaapaaqaaaaaaayyyyyyyyyyyyy0yyyyyyyyyAAA00yyr1",
"YYennqaqqqaaaaaarryaayaaayyayyyyyyyyyAyAyAA000AAAAAAK00K0yyy1",
"llnppqarraaaaaaayyyyyyyyyyyy0000yA000AAKAAAy0IAAAAAAKKKAAyyy1",
"lnnnaryyyyyyyyyyyyyyyyyyA0y0000KAyIKAAKAAAKKyyccyAAcKyyKIyyy1",
"lnnpaayyyyyyyyyyyyAyAAyyAAyAAAIKcKcAIcyAKAAy0yyAyycKcAAAAyyy1",
"lnnpqryqyyyyyerqqyyyyAAAAAAAAAyIyYKKyrAAyyAyyAYAcAAcAyKhA.yy1",
"lnaqrrryryAy0yyAyyyyr00AKKyKyKyAyqyyyerAKIKAcIYAAAyAAyAhKeya1",
"lnpqryypyyy0yy0Ar0AAqgyhqKeAyrAAAyTyAKeKryKyeqYyYATgyIK.Vnyr1",
"lnaqryqyryAyAyyyyy0AyArqyKyrryAKy0ArrA#AAyyAqKeKq0hKAKIWVVYo1",
"loqqryyyyyAAAy0yqyAyyAqTArAeyKAAqIyYAAyyAyAgqIYAeyeyAKaV.YeD1",
"lnpqryyyyy00Ayy0A0AAyA0yyKyhAyAyAcAyyyA0yyyAAYAAKKy0KIW.WYxl1",
"enpqayyyyyAyAAyyAKIyAKAAKyA0IKyyAAcAAAKAyAqrrAAKAAyIyn.VYnvj1",
"enoqaay0yKAyy00yIyyyAyKyyyAKyKAAcKKyyKKyyKIyyIcIAAyyyV.VYqlV1",
"eoqqaayyyAA0yKIyyIIyAyKyAcAAAKyAAyIyA0AyAcAAyyAIIAyyWWVYnvWW1",
"ennaryyAAyyyKyqyyry0yyIAyIYyAKAAAyAAAKKAAKyKcAAcAAyy.WVYxlV.1",
"lnparyyAK0IyAAr0IyAIAycAyKYyAyy0AycIyIcAAIyyKKKAAyAWVWXnvWW.1",
"lnparyy00IKAAArrerAqAqKqyKYrYAAIyyIIAAyyAyAAAyAAAIx.VVYzlVW.1",
"nnpqyyyyAyyAAIqAAeAyArKYgyYAgyAcyyKKAKcyAAAyyAAAyyVWikevViW.1",
"lopqyyyyyyyyAAgAAYAhyrAAyrYAeyAKKyIyAcKAAyAAKycKAlVVVYGlVVU.1",
"nnarayyyAAAKAAKyAAKAyyAAAKAKAAycKAyAAAAAAAAAyyAAy.VVWnvlkiUU1",
"noaayyrAyAAyAyAyAAAyAyAKAAyAAAAAyAyAAKAIIyyAIAIKYVWWYxlWiVV.1",
"nnparyyyAAAAcIyAAKyAAAAKAKAKAAKAyyAAyAAAAyAAyAKy.VWlatWWVUV.1",
"enpayqyyyyyyAAyAAAAAAAyyyyAAAyyAyyyyyIyKIyyyKAyW.VVelWVWVVV.1",
"enparryAKAAKAAry0YyyKKyyAIAyYyyyAyyyAyyKKAyyIAaVWVWnlFauVV.V1",
"enqqayy0KAAAAKyAKYAy0KK0yIAAYAAyKAAyyAyyyyAyyyVWVWelILalWV.W1",
"enpaayyyyAAAy0yAyrAhgyqyyyrAYrYyAAAAAAyAKAIAKp.WVYqlLFuuVVVY1",
"enparyyAAAAAIKyyA0yyyqyryYqAY0gAyyyAAAIyyyAyyVWWVeGlIuslV.YY1",
"eoqrryyyyyyyIAryAKArAqyrqyYyYyeyyyIA0yAyyyKyn.VVYxvVMlVV.WYl1",
"enpqayA0yyyyIyyy0AAyyAyyyyAAyyyyyyyyyAyAy0AyV.VVnDjnaVW..YYn1",
"eoaryyyyyy0yA0y0yyA00yyyyyAA000KyyAyyAA0yyAe.VVYxtVMlV..VYnn1",
"enparryAyAyIyyyyyyyyyyyyyyyAyyyyAAyAyy0y0yy.VWXqFjwaVVV.Ynnq1",
"eoqqyqyyAyyyyy0yyAAAyAAA0yA0yA0yyAAyyAAAAyYVVVYzslMlVVVVYnpq1",
"enparqyyAyyyyyqAyrAyyAAAyyryyAy0yyyyyAAAAyVVXlxDlHaVVVVXnqqr1",
"nnaaryyyAA0yy0ryyyyy0yyAyyrAAAAyyA0yyyyyyY.VknGslbiV.VVYnqrr1",
"nnpaayayAAyyyyqqeqyeqyegyyyeAAAyyAyyyyyyyVWilqDjHuV.V.Yeayya1",
"lnpaaypyyAyyyyqyyeyqryyyyAqyyAyAAAAAyyyyYjWXnxlkMWVV.VYnqyya1",
"nnaaryyyyyyyyy#yAWyYyqYyqyrqryyyyyyyyyyyVWWlxvWIlVVV.Wnpayya1",
"lnparyyyyyyyyyyyyyyyAyyyyyyyyyyyyAyyyyyYVWlnxllMVV..WYnayyra1",
"nnqaayyyryyyyyyyyyAyyyyyyyyyyyyyyyyyyyaVVVlxvVLl....Ynayyaaa1",
"eoqqqayyyryryyyyyyyyyyyyyyyyyyyyyyyyyyYVVYnvllMWVV.WYnaayaaa1",
"ennprryyyyyayyyyyyyyyyyyyyyyyyyyyyyyyaVVWlxvVMl....Ynayyyaqa1",
"ennqaaayyyqyyygyyyyyyyyyyyyyyqyyyyYy.WVWYnvluLVV..WYnayyyyrq1",
"lnopaaayyyyqyygyyyyyyyyyyyyyyqyyyyYynVVjlxlVPl....Yepyyyyarq1",
"eeppaaqayyyyyyphpeYeyq.yWq.yyqYyyaWpVWWlamjVlW.V.W.nqyayyyqa1",
"YeoaaaayyyyyaygyxyYyypWyhyhrypqyyyYnVWWnvlWVV..V..naaayyyaaq1",
"Ynoqqaaayyyyyxeraxor.y.yhreryqqqyqeWVllxvlVVV....Y.ayaryyaap1",
"lnnqqaaaaayyyayyyrqrryyyqrraayyyyynVVinxsWWV...WYnqqayyarraa1",
"YeonaaaayxyxrryyyrqrqryaqyaxrryayxWWWlqvlWV.W..WYnqyyxyyqaqq1",
"YennpaaaaaryryrxryxyaayayyaaaaxaxnVWXnxlVWWVVUVYnpayyqyaqqqa1",
"lennqaaaaaryraaxryrraqrarrrqaxaxrWVVYqvlVVVVV.XYnaayyryarqqo1",
"YeeooqqqaaxayreqraaqraaaqayqqqrrnVViuxllVWVVUWYnoqqaaxqaaaqa1",
"lnnnqqqqrxaxrreqrrarqqrqqaqyaoqxWVVYavsiVVV..YYoaaaaxqaqqqnq1",
"YeenaqqrqqqqqqeefeWYae.a.f.qaoenVWYexliV......YYWWqqe.aaaqon1",
"YYepqqqqrqaaaaeqqqYaae.qeqeqqeaVVYYaoWVV...V.Y.aoaWqe.qqqoqn1",
"YnnnoqqqqqaaaaYqqqea.x.qYqYqqqnVWYnaliVWV..VWneaope.q.qqqqoo1",
"YYenqqpaaaaaaaqapaqqqqqqqqaqpVVVXYolYVWV..WYWnqaeqaqqqqqqoon1",
"YlennnooaqapaaqqqqqqqqqqqqpnYYlY.enlXVV.V.VYYnqpqoaqqqqqooon1",
"YeennnonqqapqaonpnnqoqoqqqpnXln0KaljWVV..WWYopoaqqqoqqqqqann1",
"YYnnnoqonqnpoqqppnpapaqqqqqWXn0b11aYVV.VVVYnnpqpnaappppnpnon1",
"YYeenpqooonnppnoooqqooqqnnnXnnb11SLaWV.WWXlnnaonnnnappppnnnn1",
"WYeYnfnqqqpqooonnnnpnnpqooWYw0P11NLalWWVWYnnnnooonpnnnnpnnnn1",
"YYllnefnnnnnnnnooqooooqoneVWnb11QFaskVWVVYennppqqoqoqooooofo1",
"YYYllonfnnenqnneoeononfooVVYnnIZLEukWlW.VYennoponnooooooofne1",
"YYYllnnnnononnonnnnnnneoY..lnaxsaEskVmV.YYnnonnfoonfononnnen1",
"YYYYYYeefefeeonenefeeeooVVVlnIvssjkjWWVVYlnefnnoonoofooonnne1",
"VYYYeeeeeneenoennefeffnY.VklaFsCkjVWWV.YYlonnnnffeenennnleeY1",
"WYYYYeeeeeonnnenlenneYeVVlluytlBkVV.VVVYYnenneneledomooeeneY1",
"WWYYeYlolnmYlneeYYnlllWVWYlaFulVVVWU.WWYlneeefnffeemYYfYYYYl1",
"VWYYeeeldeYfYeflYeeleYVWVllFvllYWVVU.WYYnefeYenelmllolldYYYY1",
"WWXYYYYlleeneYYYeeYneYVXXlqxllXVVVW.WVYYneYneenneeYdeeeYlYYY1",
"VWWYYeYYeYnleYYYYnYYlVVXlnyvjjlVU..VWWYYYeYlYneenleYeeeYYYYY1",
"WXYYYYYYYYeelYYYYeYYl.VknxFlXkVVV..WVYYlYYYlYYlYnllelYYYYlYY1",
"WWWVYYYYlYYYYYYYYYYl.VWYnxvlkV...V.VYWYYYYYYlYYYYYYYYYYYYYYY1",
"YWWYYYYYYYYYYYYYYYYW.VWYavlYV.......XYYYYYYYYYYYYlYYlYYYYYYY1",
"WYVVYYYYYYYYYYYYYYY...WexlYVW..V....VYYYYYYYYYYYYYYYYYYYWYYY1",
"..WYWYXYYYYYYYYYYYW..WYqvlWWV.....WYYYYYYYYYYYYWYYYYYWYYWWWW1",
"VV.YYYYYWYXXVVWWWYV.WWexlWW.......WYVWWVXYYXXVVXWVYYXYYXWVWW1",
"VXWWWWYYXVVYYWXYWWVWYYqmYW....V..YWYXYVVWWYWWVYYVXXXXXYYXVWW1",
".WWY.WWWVVVWYWXYY...WexlWV...V...V.YYYYWWWWWWVWWVVXVVXWWXW.W1",
"Z111111111111111111111111111111111111111111111111111111111111"
};
